<svg xmlns="http://www.w3.org/2000/svg" width="21" height="21" viewBox="0 0 21 21">
    <path fill="#152D4E" d="M20.416 13.953c.779-2.236.779-4.67 0-6.906-.01-.033-.02-.066-.034-.098C18.885 2.78 14.931 0 10.5 0 6.07 0 2.115 2.78.618 6.949c-.014.032-.025.065-.034.098-.779 2.236-.779 4.67 0 6.906.01.033.02.066.034.098C2.115 18.22 6.069 21 10.5 21c4.43 0 8.385-2.78 9.882-6.949.014-.032.025-.065.034-.098zM10.5 19.49c-.4 0-1.044-.723-1.58-2.339-.279-.865-.486-1.752-.619-2.652h4.407c-.133.9-.34 1.787-.62 2.652-.543 1.616-1.188 2.34-1.588 2.34zm-2.386-6.495c-.072-.802-.11-1.64-.11-2.496 0-.856.038-1.694.11-2.496h4.771c.072.802.11 1.64.11 2.496 0 .856-.038 1.694-.11 2.496H8.114zM1.5 10.5c0-.844.118-1.685.353-2.496h4.75c-.07.819-.105 1.658-.105 2.496 0 .838.036 1.677.106 2.496H1.858c-.235-.811-.354-1.652-.353-2.496h-.004zm8.995-8.991c.4 0 1.045.723 1.58 2.339.279.865.486 1.752.619 2.652H8.296c.134-.899.341-1.784.621-2.648.539-1.62 1.183-2.343 1.583-2.343h-.004zm3.9 6.496h4.748c.47 1.63.47 3.36 0 4.99h-4.749c.07-.818.106-1.657.106-2.495 0-.838-.035-1.677-.106-2.495zM18.551 6.5h-4.33c-.188-1.626-.651-3.208-1.37-4.678 2.48.677 4.553 2.379 5.7 4.678zM8.148 1.822C7.43 3.292 6.966 4.874 6.778 6.5H2.445c1.148-2.3 3.222-4.001 5.702-4.678zM2.446 14.5h4.331c.189 1.626.652 3.209 1.371 4.68-2.48-.678-4.554-2.38-5.702-4.68zm10.405 4.68c.719-1.471 1.182-3.054 1.37-4.68h4.331c-1.147 2.3-3.22 4.001-5.7 4.68h-.001z" opacity=".3"/>
</svg>
