<svg xmlns="http://www.w3.org/2000/svg" xmlns:xlink="http://www.w3.org/1999/xlink" width="14" height="11" viewBox="0 0 14 11">
    <defs>
        <path id="prefix__a" d="M198.477 33c.834 0 1.545-.276 2.132-.827.587-.551.881-1.2.881-1.944 0-.827-.263-1.468-.788-1.923-.525-.454-1.113-.682-1.762-.682-.587 0-1.02.097-1.298.29l-.185-.083c.216-.91.726-1.75 1.53-2.523.803-.772 1.808-1.337 3.013-1.695L200.053 22c-1.7.717-2.967 1.695-3.801 2.936-.835 1.24-1.252 2.592-1.252 4.053 0 1.185.31 2.15.927 2.894.618.745 1.468 1.117 2.55 1.117zm7 0c.834 0 1.545-.276 2.132-.827.587-.551.881-1.2.881-1.944 0-.827-.263-1.468-.788-1.923-.525-.454-1.113-.682-1.762-.682-.587 0-1.02.097-1.298.29l-.185-.083c.216-.91.726-1.75 1.53-2.523.803-.772 1.808-1.337 3.013-1.695L207.053 22c-1.7.717-2.967 1.695-3.801 2.936-.835 1.24-1.252 2.592-1.252 4.053 0 1.185.31 2.15.927 2.894.618.745 1.468 1.117 2.55 1.117z"/>
    </defs>
    <g fill="#1CB54F" transform="rotate(180 104.5 16.5)">
        <use xlink:href="#prefix__a"/>
        <use xlink:href="#prefix__a"/>
    </g>
</svg>
