<svg xmlns="http://www.w3.org/2000/svg" width="18" height="14" viewBox="0 0 18 14">
    <g fill="none" fill-rule="evenodd">
        <path d="M0 0H18V18H0z" transform="translate(0 -2)"/>
        <g fill="#FFF" transform="translate(0 -2) translate(0 2.25)">
            <path d="M12.732 8.168c1.132.651 1.848 1.84 1.893 3.145v2.438h3.25v-2.438c0-1.772-2.9-2.82-5.143-3.145z"/>
            <circle cx="6.312" cy="3.875" r="3.375" fill-rule="nonzero"/>
            <path d="M11.375 7.25c1.795 0 3.25-1.455 3.25-3.25S13.17.75 11.375.75c-.368.006-.733.072-1.08.195 1.44 1.782 1.44 4.328 0 6.11.347.123.712.19 1.08.195zM6.5 8.063c-2.17 0-6.5 1.088-6.5 3.25v2.437h13v-2.438c0-2.16-4.33-3.25-6.5-3.25z"/>
        </g>
    </g>
</svg>
