<svg xmlns="http://www.w3.org/2000/svg" width="23" height="23" viewBox="0 0 23 23">
    <g fill="none" fill-rule="evenodd">
        <path d="M0 0L29.497 0 29.497 29.497 0 29.497z" transform="translate(-3 -3)"/>
        <path fill="#3B53A4" fill-rule="nonzero" d="M18.93 25.81v-8.562h2.867l.429-3.328H18.93v-2.124c0-.963.267-1.62 1.649-1.62h1.762V7.197c-.853-.09-1.71-.134-2.568-.131-2.54 0-4.28 1.551-4.28 4.4v2.453H12.62v3.328h2.873v8.562H4.916c-.679 0-1.229-.55-1.229-1.23V4.917c0-.679.55-1.229 1.23-1.229H24.58c.678 0 1.229.55 1.229 1.23V24.58c0 .678-.55 1.229-1.23 1.229h-5.65z" transform="translate(-3 -3)"/>
    </g>
</svg>
