<svg xmlns="http://www.w3.org/2000/svg" xmlns:xlink="http://www.w3.org/1999/xlink" width="30" height="30" viewBox="0 0 30 30">
    <defs>
        <linearGradient id="prefix__b" x1="-6.709%" x2="106.709%" y1="0%" y2="100%">
            <stop offset="0%" stop-color="#14B349"/>
            <stop offset="100%" stop-color="#09A04F"/>
        </linearGradient>
        <path id="prefix__a" d="M15 0C6.72 0 0 6.72 0 15c0 8.28 6.72 15 15 15 8.28 0 15-6.72 15-15 0-8.28-6.72-15-15-15z"/>
    </defs>
    <g fill="none" fill-rule="evenodd">
        <use fill="url(#prefix__b)" fill-rule="nonzero" opacity=".95" xlink:href="#prefix__a"/>
        <g fill="#2A535F" stroke="#000" stroke-opacity="0" opacity=".05">
            <g>
                <path d="M3.763 9.264C2.55 8.08 2.264 6.12 1.767 4.568 1.53 3.823.457.65 0 .124L.084.038C2.783 1.674 7.102 1.431 9.352 3.63c1.367 1.335.883 2.894.563 4.514l-.086-.013c-.028 0 .014-.068.015-.085.005-.071.003-.05.005-.128-.004-.071 0-.142.01-.213.023-.14.031-.283.025-.425-.005-.303.025-.544-.039-.85-.11-.528-.269-1.237-.778-1.734l-.086-.084C7.945 3.6 5.728 3.382 4.769 4.363l-.337.344c-.947.97-.697 3.186.304 4.163l.086.084c.9.88 2.599.913 3.509.725l-.013.085c0 .045-1.004.355-1.101.37-.4.06-.746.054-1.148.06-.86.002-1.688-.332-2.306-.93z" transform="translate(16.217 16.629)"/>
                <path d="M7.538 7.405c.396-.405.509-1.01.286-1.53-.223-.521-.738-.857-1.304-.85-.567.007-1.074.354-1.284.88-.211.526-.084 1.127.32 1.523.554.54 1.44.53 1.982-.023z" transform="translate(16.217 16.629)"/>
            </g>
            <g>
                <path d="M6.504.93c1.212 1.185 1.498 3.144 1.995 4.696.239.745 1.31 3.917 1.767 4.444l-.084.086C7.483 8.52 3.164 8.763.914 6.565-.452 5.229.031 3.67.352 2.05l.085.013c.029 0-.014.068-.015.086-.005.07-.003.05-.004.127.003.071 0 .142-.01.213-.024.14-.032.283-.025.425.005.303-.025.544.038.85.11.528.27 1.237.779 1.734l.086.084c1.035 1.012 3.252 1.231 4.212.25l.336-.345c.948-.97.697-3.185-.303-4.163l-.086-.084c-.9-.88-2.6-.913-3.51-.725L1.95.43c0-.045 1.004-.355 1.1-.37.4-.06.746-.054 1.148-.06.86-.001 1.688.332 2.307.93z" transform="translate(3.24 3.544)"/>
                <path d="M2.729 2.79c-.396.405-.509 1.008-.286 1.53.223.52.737.856 1.304.849.566-.006 1.073-.354 1.284-.88.21-.525.084-1.126-.321-1.522-.554-.54-1.44-.53-1.981.022z" transform="translate(3.24 3.544)"/>
            </g>
            <g>
                <path d="M9.079 7.974c-1.695 0-3.269-1.201-4.71-1.964C3.68 5.644.696 4.125 0 4.067v-.12C3.074 3.23 5.993.036 9.139.036c1.91 0 2.655 1.454 3.557 2.837l-.07.05c-.02.02-.038-.058-.049-.071-.046-.055-.032-.038-.086-.095-.052-.048-.1-.101-.142-.159-.08-.117-.175-.225-.279-.322-.215-.213-.362-.406-.621-.58C11 1.395 10.392 1 9.679 1h-.12C8.113 1 6.374 2.393 6.374 3.766v.48c0 1.357 1.728 2.766 3.127 2.766h.12c1.258 0 2.497-1.163 3.016-1.934l.05.07c.032.032-.47.956-.53 1.035-.242.322-.494.56-.778.844-.614.603-1.439.942-2.3.947z" transform="translate(16.95 11.184)"/>
                <path d="M10.48 4.006c0-.773-.628-1.4-1.401-1.4-.774 0-1.4.627-1.4 1.4 0 .774.626 1.401 1.4 1.401.773 0 1.4-.627 1.4-1.4h0z" transform="translate(16.95 11.184)"/>
            </g>
            <g>
                <path d="M3.617 7.974c1.695 0 3.269-1.201 4.71-1.964.69-.366 3.674-1.885 4.37-1.943v-.12C9.622 3.23 6.702.036 3.556.036 1.647.038.903 1.492 0 2.875l.07.05c.02.02.038-.058.049-.071.046-.055.033-.038.086-.095.052-.048.1-.101.142-.159.081-.117.175-.225.28-.322.214-.213.36-.406.62-.58C1.696 1.395 2.305 1 3.018 1h.12c1.447 0 3.186 1.393 3.186 2.766v.48c0 1.357-1.727 2.766-3.126 2.766h-.12C1.816 7.012.58 5.85.06 5.078l-.05.07c-.032.032.47.956.53 1.035.242.322.494.56.778.844.614.603 1.439.943 2.3.947h0z" transform="translate(0 11.184)"/>
                <path d="M2.217 4.006c0-.773.627-1.4 1.4-1.4.774 0 1.401.627 1.401 1.4 0 .774-.627 1.401-1.4 1.401-.774 0-1.401-.627-1.401-1.4z" transform="translate(0 11.184)"/>
            </g>
            <g>
                <path d="M0 9.079c0-1.695 1.202-3.269 1.965-4.71C2.33 3.68 3.85.696 3.908 0h.12c.716 3.074 3.908 5.993 3.908 9.139 0 1.91-1.453 2.655-2.835 3.557l-.05-.07c-.02-.02.057-.038.07-.049.055-.046.039-.032.095-.086.049-.052.102-.1.16-.141.116-.082.224-.175.32-.28.214-.215.407-.362.582-.621.3-.448.696-1.057.696-1.769v-.12c0-1.448-1.392-3.187-2.765-3.187h-.481C2.37 6.373.962 8.101.962 9.5v.12c0 1.259 1.163 2.497 1.934 3.016l-.07.05c-.032.032-.956-.47-1.034-.529-.322-.243-.56-.495-.845-.779C.345 10.764.005 9.94 0 9.078z" transform="translate(10.828 17.266)"/>
                <path d="M3.968 10.48c.774 0 1.401-.627 1.401-1.401s-.627-1.4-1.4-1.4c-.774 0-1.401.626-1.401 1.4 0 .773.627 1.4 1.4 1.4z" transform="translate(10.828 17.266)"/>
            </g>
            <g>
                <path d="M6.504 9.226C7.716 8.042 8.002 6.083 8.499 4.53c.239-.745 1.31-3.917 1.767-4.444L10.182 0C7.483 1.636 3.164 1.393.914 3.592-.452 4.927.031 6.486.352 8.106l.085-.013c.029 0-.013-.068-.015-.085-.005-.071-.003-.05-.004-.128.003-.07 0-.142-.01-.213-.024-.14-.032-.283-.025-.425.005-.303-.026-.544.038-.85.11-.527.27-1.236.779-1.734l.086-.084c1.035-1.012 3.252-1.23 4.212-.249l.336.344c.948.97.697 3.186-.304 4.163l-.086.084c-.9.88-2.598.913-3.509.725l.014.085c0 .045 1.004.356 1.1.37.4.06.746.054 1.148.06.86.002 1.688-.332 2.307-.93h0z" transform="translate(3.182 16.81)"/>
                <path d="M2.729 7.367c-.396-.405-.51-1.01-.286-1.53.222-.521.737-.856 1.304-.85.566.007 1.073.354 1.284.88.21.526.084 1.127-.322 1.523-.265.26-.623.403-.995.398-.371-.004-.726-.156-.985-.421h0z" transform="translate(3.182 16.81)"/>
            </g>
            <g>
                <path d="M3.762.93C2.55 2.115 2.264 4.074 1.767 5.626 1.53 6.371.457 9.543 0 10.07l.084.086C2.783 8.52 7.102 8.763 9.352 6.565c1.366-1.336.883-2.895.562-4.515l-.085.013c-.029 0 .014.068.015.086.005.07.003.05.005.127-.004.071 0 .142.01.213.023.14.031.283.024.425-.005.303.026.544-.038.85-.11.528-.269 1.237-.778 1.734l-.086.084c-1.036 1.012-3.253 1.231-4.212.25l-.337-.345c-.947-.97-.697-3.185.304-4.163l.086-.084C5.722.36 7.42.327 8.33.515L8.318.43c0-.045-1.004-.355-1.101-.37C6.817 0 6.47.006 6.069 0 5.21 0 4.381.332 3.762.93h0z" transform="translate(16.176 3.544)"/>
                <path d="M7.538 2.79c.396.405.508 1.008.286 1.53-.223.52-.738.856-1.304.85-.567-.007-1.074-.355-1.284-.88-.211-.526-.084-1.127.32-1.523.554-.541 1.44-.53 1.982.022h0z" transform="translate(16.176 3.544)"/>
            </g>
            <g>
                <path d="M0 3.618c0 1.694 1.202 3.268 1.965 4.709.366.691 1.885 3.674 1.943 4.37h.12c.716-3.074 3.908-5.994 3.908-9.14C7.936 1.647 6.483.903 5.101 0l-.05.07c-.02.02.057.038.07.049.055.046.039.033.095.086.049.052.102.1.16.142.116.081.224.175.321.28.213.214.406.36.58.62.302.448.697 1.057.697 1.77v.12c0 1.447-1.392 3.186-2.765 3.186h-.481C2.37 6.323.962 4.595.962 3.197v-.12C.962 1.816 2.125.58 2.896.06l-.07-.05c-.032-.032-.956.47-1.034.53-.322.242-.56.494-.845.778-.602.614-.942 1.44-.947 2.3z" transform="translate(10.828)"/>
                <path d="M3.968 5.018c.567 0 1.078-.341 1.294-.864.217-.524.097-1.126-.303-1.527-.4-.4-1.003-.52-1.527-.304-.523.217-.864.728-.864 1.295 0 .773.627 1.399 1.4 1.4z" transform="translate(10.828)"/>
            </g>
            <path d="M14.863 16.194c.416 0 .791-.25.95-.635.16-.385.072-.827-.222-1.121-.295-.295-.737-.383-1.121-.223-.385.159-.635.534-.635.95 0 .568.46 1.028 1.028 1.029h0z"/>
        </g>
        <g fill="#FFF" fill-rule="nonzero">
            <path d="M14.946 9.32L8.32 5.136c-.574-.353-1.32.027-1.32.68v8.37c0 .653.775 1.033 1.32.68l6.626-4.186c.516-.326.516-1.032 0-1.358z" transform="translate(5 5)"/>
            <path d="M10 .104C4.542.104.104 4.542.104 10c0 5.458 4.438 9.896 9.896 9.896 5.458 0 9.896-4.438 9.896-9.896 0-5.458-4.438-9.896-9.896-9.896zm0 18.25c-4.604 0-8.354-3.75-8.354-8.354 0-4.604 3.75-8.354 8.354-8.354 4.604 0 8.354 3.75 8.354 8.354 0 4.604-3.75 8.354-8.354 8.354z" transform="translate(5 5)"/>
        </g>
    </g>
</svg>
