<svg xmlns="http://www.w3.org/2000/svg" width="26" height="21" viewBox="0 0 26 21">
    <g fill="none" fill-rule="evenodd">
        <path d="M0 0L29.497 0 29.497 29.497 0 29.497z" transform="translate(-2 -4)"/>
        <path fill="#2E9FF9" fill-rule="nonzero" d="M27.238 6.951c-.938.415-1.934.688-2.952.81a5.157 5.157 0 002.261-2.845c-1.008.6-2.113 1.02-3.264 1.248a5.14 5.14 0 00-8.758 4.687A14.594 14.594 0 013.93 5.481a5.123 5.123 0 00-.695 2.584 5.14 5.14 0 002.286 4.278 5.123 5.123 0 01-2.328-.643v.064a5.143 5.143 0 004.123 5.04 5.174 5.174 0 01-2.322.089 5.143 5.143 0 004.801 3.57 10.316 10.316 0 01-7.609 2.13 14.54 14.54 0 007.879 2.31c9.454 0 14.625-7.833 14.625-14.626 0-.221-.006-.445-.016-.664a10.442 10.442 0 002.565-2.66l-.001-.002z" transform="translate(-2 -4)"/>
    </g>
</svg>
