<svg xmlns="http://www.w3.org/2000/svg" width="26" height="21" viewBox="0 0 26 21">
    <g fill="none" fill-rule="evenodd">
        <path d="M0 0L29.497 0 29.497 29.497 0 29.497z" transform="translate(-2 -4)"/>
        <path fill="#F91100" fill-rule="nonzero" d="M26.477 7.986c.562 2.19.562 6.762.562 6.762s0 4.572-.562 6.763c-.312 1.21-1.225 2.163-2.382 2.485-2.1.585-9.347.585-9.347.585s-7.242 0-9.346-.585c-1.162-.327-2.074-1.279-2.382-2.485-.562-2.19-.562-6.763-.562-6.763s0-4.572.562-6.762c.312-1.21 1.225-2.163 2.382-2.485 2.104-.585 9.346-.585 9.346-.585s7.247 0 9.347.585c1.162.327 2.074 1.278 2.382 2.485zM12.29 19.05l7.375-4.302-7.375-4.301v8.603z" transform="translate(-2 -4)"/>
    </g>
</svg>
